<svg xmlns="http://www.w3.org/2000/svg" viewBox="0 0 1025 7"><defs><style>.cls-1{fill:none;stroke:#c8c8c8;stroke-linecap:round;stroke-miterlimit:10;}</style></defs><title>common_line_wave_gray_pc</title><g id="レイヤー_2" data-name="レイヤー 2"><g id="product"><path class="cls-1" d="M1024.5,6.5c-8,0-8-6-16-6s-8,6-16,6-8-6-16-6-8,6-16,6-8-6-16-6-8,6-16,6-8-6-16-6-8,6-16,6-8-6-16-6-8,6-16,6-8-6-16-6-8,6-16,6-8-6-16-6-8,6-16,6-8-6-16-6-8,6-16,6-8-6-16-6-8,6-16,6-8-6-16-6-8,6-16,6-8-6-16-6-8,6-16,6-8-6-16-6-8,6-16,6-8-6-16-6-8,6-16,6-8-6-16-6-8,6-16,6-8-6-16-6-8,6-16,6-8-6-16-6-8,6-16,6-8-6-16-6-8,6-16,6-8-6-16-6-8,6-16,6-8-6-16-6-8,6-16,6-8-6-16-6-8,6-16,6-8-6-16-6-8,6-16,6-8-6-16-6-8,6-16,6-8-6-16-6-8,6-16,6-8-6-16-6-8,6-16,6-8-6-16-6-8,6-16,6-8-6-16-6-8,6-16,6-8-6-16-6-8,6-16,6-8-6-16-6-8,6-16,6-8-6-16-6-8,6-16,6-8-6-16-6-8,6-16,6-8-6-16-6-8,6-16,6-8-6-16-6-8,6-16,6"/></g></g></svg>