<svg xmlns="http://www.w3.org/2000/svg" viewBox="0 0 20.25 18"><defs><style>.cls-1{fill:#8c8c8c;}</style></defs><title>header_window</title><g id="レイヤー_2" data-name="レイヤー 2"><g id="header"><path class="cls-1" d="M18.86,0H5.39A1.38,1.38,0,0,0,4,1.37V5.92H2.38A2.69,2.69,0,0,0,0,8.84v6.24A2.94,2.94,0,0,0,3,18h8.33a2.72,2.72,0,0,0,3-2.39V14.06h3a2.94,2.94,0,0,0,3-2.92V1.37A1.38,1.38,0,0,0,18.86,0ZM13.33,15.61c0,.8-.93,1.47-2,1.47H3a2,2,0,0,1-2-2V8.84c0-1.09.67-2,1.45-2H4v4.31a2.94,2.94,0,0,0,3,2.92h6.37Zm4-2.47H7a2,2,0,0,1-2-2V4.4h14.4v6.74A2,2,0,0,1,17.29,13.14Z"/></g></g></svg>