<svg xmlns="http://www.w3.org/2000/svg" viewBox="0 0 55.93 42.45"><defs><style>.cls-1{fill:#004098;}.cls-2{fill:#de0d85;}</style></defs><title>header_staff</title><g id="レイヤー_2" data-name="レイヤー 2"><g id="header"><path class="cls-1" d="M26.2,3a13,13,0,0,1,4.71,1A7.67,7.67,0,0,1,32.72,5.1.29.29,0,0,0,33.18,5,3.73,3.73,0,0,0,33,2.22a3.82,3.82,0,0,0-7.09.38A.29.29,0,0,0,26.2,3Z"/><path class="cls-1" d="M37.2,25.22a1,1,0,0,0,.6,1.13l1.21.51a4.43,4.43,0,0,0,.93-.88,36.07,36.07,0,0,0,1.89-4.22c.35-.87.68-1.69,1-2.32l0-.11c-.38-4.62-2.19-9.81-7.7-12.93a.31.31,0,0,0-.4.44C36.32,9.08,39.19,14.82,37.2,25.22Z"/><path class="cls-1" d="M11.09,20.54c7.23-.79,16.31,1.81,23.26,4.44a1,1,0,0,0,1.34-.75C36.69,18.63,38,4.39,25,4.1,11.85,3.8,10.11,15,9.95,19.5A1,1,0,0,0,11.09,20.54Z"/><path class="cls-1" d="M32.28,33.13a11,11,0,0,1,3.83-4.23l.75-.52.17-.12c-4-1.37-10-3.41-12-4C22,23.29,14,21.37,10,23a1.33,1.33,0,0,0-.42.29L.39,32.05a1.3,1.3,0,0,0,.88,2.23c4.15.12,11.48.69,15.67,3.14,3.43,2,9.35,1.81,14.39.29A8.89,8.89,0,0,1,32.28,33.13Z"/><path class="cls-2" d="M55.65,7.65A2.81,2.81,0,0,0,53.52,6c-1.94-.22-2.87,1.19-3.65,2.72s-1.34,3-2.06,4.55l-.28.58c-.71,1.46-1.37,2.94-2,4.38-.3.68-.6,1.35-.89,2-.8,1.77-2,5.14-3,6.76-.62,1-2.38,2.14-4.39,3.53A9,9,0,0,0,34.07,34c-1.55,3-.69,6.6,1.91,7.92s6-.09,7.51-3.13a9,9,0,0,0,.93-4.63c-.07-2.44-.45-4.27,0-5.37.72-1.75,3-5,3.95-6.65.35-.62.71-1.25,1.08-1.9.78-1.37,1.59-2.77,2.35-4.21l.3-.57c.77-1.44,1.77-2.73,2.66-4.09C55.47,10.31,56.4,8.94,55.65,7.65ZM42.73,37c-.41,2.21-2.17,4.25-3.93,4.58a1.94,1.94,0,0,1-2-.74s0-.1.06-.14h0l0,0c2-.05,4.35-2,5.6-4.58.08-.17.32-.2.32,0A5,5,0,0,1,42.73,37Z"/></g></g></svg>