<svg xmlns="http://www.w3.org/2000/svg" viewBox="0 0 54.26 36"><defs><style>.cls-1{fill:#004098;}.cls-2{fill:#de0d85;}</style></defs><title>header_shop</title><g id="レイヤー_2" data-name="レイヤー 2"><g id="header"><rect class="cls-1" x="8.12" y="17.16" width="3.78" height="4.43"/><rect class="cls-1" x="17.57" y="17.16" width="3.78" height="4.43"/><path class="cls-1" d="M36.65,31.12v2.62H25.76V27c-.2-.2-.38-.41-.57-.62h-12v7.33H2.27V13.45a4.78,4.78,0,0,0,6.2-1,4.79,4.79,0,0,0,7.33,0,4.78,4.78,0,0,0,6.23,1,14.13,14.13,0,0,1,1.76-4.07c.14-.23.31-.43.47-.65V2.27h5.06V4.33a14.07,14.07,0,0,1,2.27-.93V2.27h5.06v.56a14.11,14.11,0,0,1,2.27.32V0H0V36H38.91V30.79A14.11,14.11,0,0,1,36.65,31.12ZM16.93,2.27H22V9.38a2.53,2.53,0,0,1-5.06,0Zm-2.27,0V9.38a2.53,2.53,0,0,1-5.06,0V2.27Zm-12.39,0H7.33V9.38a2.53,2.53,0,0,1-5.06,0Z"/><path class="cls-2" d="M53.52,31.2l-6.64-6.62a13.67,13.67,0,0,1-3.53,3.54L50,34.73a2.5,2.5,0,1,0,3.53-3.54Z"/><path class="cls-2" d="M35.75,5.46a11.42,11.42,0,0,0-6.16,1.8,11.58,11.58,0,0,0-3.53,3.54A11.49,11.49,0,0,0,41.91,26.67a11.58,11.58,0,0,0,3.53-3.54,11.5,11.5,0,0,0-9.7-17.67ZM43,20.69a8.21,8.21,0,0,1-3.53,3.54,8.16,8.16,0,0,1-11-11A8.22,8.22,0,0,1,32,9.7a8.16,8.16,0,0,1,11,11Z"/></g></g></svg>